<?xml version="1.0" encoding="UTF-8"?>
<svg id="Layer_1" xmlns="http://www.w3.org/2000/svg" version="1.1" viewBox="0 0 633.9 379">
  <!-- Generator: Adobe Illustrator 29.4.0, SVG Export Plug-In . SVG Version: 2.1.0 Build 152)  -->
  <defs>
    <style>
      .st0 {
        stroke-width: 12px;
      }

      .st0, .st1, .st2, .st3, .st4 {
        fill: none;
      }

      .st0, .st1, .st3, .st4 {
        stroke-linecap: round;
        stroke-linejoin: round;
      }

      .st0, .st2, .st4 {
        stroke: #000;
      }

      .st1 {
        stroke: #c80000;
        stroke-width: 6px;
      }

      .st2, .st4 {
        stroke-width: 2px;
      }

      .st3 {
        stroke: #646464;
        stroke-width: 4px;
      }

      .st5 {
        fill: #fff;
      }

      .st6 {
        fill: #8f8fff;
      }

      .st7 {
        fill: #f00000;
      }

      .st8 {
        fill: #ffc832;
      }

      .st9 {
        fill: #c8c8c8;
      }
    </style>
  </defs>
  <rect class="st5" x="0" y="-.61" width="633.9" height="379.22"/>
  <g>
    <circle class="st5" cx="231.45" cy="249" r="8"/>
    <circle class="st2" cx="231.45" cy="249" r="8"/>
    <path class="st4" d="M223.45,249c0-1.66,3.58-3,8-3s8,1.34,8,3"/>
    <path class="st4" d="M231.45,241c1.66,0,3,3.58,3,8s-1.34,8-3,8"/>
    <line class="st0" x1="218.45" y1="244" x2="225.45" y2="247"/>
    <circle class="st5" cx="161.45" cy="81" r="8"/>
    <circle class="st2" cx="161.45" cy="81" r="8"/>
    <path class="st4" d="M153.45,81c0-1.66,3.58-3,8-3s8,1.34,8,3"/>
    <path class="st4" d="M161.45,73c1.66,0,3,3.58,3,8s-1.34,8-3,8"/>
    <line class="st0" x1="210.45" y1="241" x2="218.45" y2="244"/>
    <line class="st0" x1="203.45" y1="238" x2="210.45" y2="241"/>
    <line class="st0" x1="166.45" y1="93" x2="163.45" y2="86"/>
    <line class="st0" x1="195.45" y1="235" x2="203.45" y2="238"/>
    <circle class="st5" cx="113.45" cy="256" r="8"/>
    <circle class="st2" cx="113.45" cy="256" r="8"/>
    <path class="st4" d="M105.45,256c0-1.66,3.58-3,8-3s8,1.34,8,3"/>
    <path class="st4" d="M113.45,248c1.66,0,3,3.58,3,8s-1.34,8-3,8"/>
    <line class="st0" x1="169.45" y1="99" x2="166.45" y2="93"/>
    <line class="st0" x1="131.45" y1="249" x2="121.45" y2="253"/>
    <line class="st0" x1="142.45" y1="245" x2="131.45" y2="249"/>
    <line class="st0" x1="152.45" y1="241" x2="142.45" y2="245"/>
    <line class="st0" x1="171.45" y1="106" x2="169.45" y2="99"/>
    <line class="st0" x1="163.45" y1="237" x2="152.45" y2="241"/>
    <circle class="st5" cx="327.45" cy="94" r="8"/>
    <circle class="st2" cx="327.45" cy="94" r="8"/>
    <path class="st4" d="M319.45,94c0-1.66,3.58-3,8-3s8,1.34,8,3"/>
    <path class="st4" d="M327.45,86c1.66,0,3,3.58,3,8s-1.34,8-3,8"/>
    <circle class="st9" cx="182.45" cy="230" r="20"/>
    <circle class="st2" cx="182.45" cy="230" r="20"/>
    <path class="st4" d="M162.45,230c0-4.42,8.95-8,20-8s20,3.58,20,8"/>
    <path class="st4" d="M182.45,210c4.42,0,8,8.95,8,20s-3.58,20-8,20"/>
    <line class="st0" x1="174.45" y1="113" x2="171.45" y2="106"/>
    <line class="st0" x1="181.45" y1="196" x2="181.45" y2="209"/>
    <line class="st0" x1="181.45" y1="184" x2="181.45" y2="196"/>
    <line class="st0" x1="314.45" y1="98" x2="322.45" y2="96"/>
    <line class="st0" x1="181.45" y1="171" x2="181.45" y2="184"/>
    <line class="st0" x1="180.45" y1="158" x2="181.45" y2="171"/>
    <line class="st0" x1="180.45" y1="146" x2="180.45" y2="158"/>
    <line class="st0" x1="307.45" y1="100" x2="314.45" y2="98"/>
    <circle class="st9" cx="180.45" cy="125" r="20"/>
    <circle class="st2" cx="180.45" cy="125" r="20"/>
    <path class="st4" d="M160.45,125c0-4.42,8.95-8,20-8s20,3.58,20,8"/>
    <path class="st4" d="M180.45,105c4.42,0,8,8.95,8,20s-3.58,20-8,20"/>
    <line class="st0" x1="191.45" y1="238" x2="188.45" y2="235"/>
    <line class="st0" x1="299.45" y1="103" x2="307.45" y2="100"/>
    <line class="st0" x1="211.45" y1="120" x2="199.45" y2="122"/>
    <line class="st0" x1="223.45" y1="118" x2="211.45" y2="120"/>
    <line class="st0" x1="292.45" y1="105" x2="299.45" y2="103"/>
    <line class="st0" x1="195.45" y1="242" x2="191.45" y2="238"/>
    <line class="st0" x1="235.45" y1="116" x2="223.45" y2="118"/>
    <line class="st0" x1="247.45" y1="114" x2="235.45" y2="116"/>
    <line class="st0" x1="158.45" y1="124" x2="167.45" y2="125"/>
    <line class="st0" x1="259.45" y1="113" x2="247.45" y2="114"/>
    <line class="st0" x1="199.45" y1="245" x2="195.45" y2="242"/>
    <line class="st0" x1="150.45" y1="124" x2="158.45" y2="124"/>
    <circle class="st9" cx="278.45" cy="109" r="20"/>
    <circle class="st2" cx="278.45" cy="109" r="20"/>
    <path class="st4" d="M258.45,109c0-4.42,8.95-8,20-8s20,3.58,20,8"/>
    <path class="st4" d="M278.45,89c4.42,0,8,8.95,8,20s-3.58,20-8,20"/>
    <line class="st0" x1="203.45" y1="248" x2="199.45" y2="245"/>
    <line class="st0" x1="142.45" y1="123" x2="150.45" y2="124"/>
    <circle class="st5" cx="357.45" cy="239" r="8"/>
    <circle class="st2" cx="357.45" cy="239" r="8"/>
    <path class="st4" d="M349.45,239c0-1.66,3.58-3,8-3s8,1.34,8,3"/>
    <path class="st4" d="M357.45,231c1.66,0,3,3.58,3,8s-1.34,8-3,8"/>
    <line class="st0" x1="283.45" y1="128" x2="286.45" y2="139"/>
    <line class="st0" x1="342.45" y1="230" x2="351.45" y2="235"/>
    <circle class="st5" cx="505.45" cy="180" r="8"/>
    <circle class="st2" cx="505.45" cy="180" r="8"/>
    <path class="st4" d="M497.45,180c0-1.66,3.58-3,8-3s8,1.34,8,3"/>
    <path class="st4" d="M505.45,172c1.66,0,3,3.58,3,8s-1.34,8-3,8"/>
    <line class="st0" x1="286.45" y1="139" x2="289.45" y2="151"/>
    <line class="st0" x1="134.45" y1="123" x2="142.45" y2="123"/>
    <line class="st0" x1="206.45" y1="252" x2="203.45" y2="248"/>
    <line class="st0" x1="279.45" y1="94" x2="280.45" y2="84"/>
    <line class="st0" x1="334.45" y1="224" x2="342.45" y2="230"/>
    <circle class="st5" cx="42.45" cy="125" r="8"/>
    <circle class="st2" cx="42.45" cy="125" r="8"/>
    <path class="st4" d="M34.45,125c0-1.66,3.58-3,8-3s8,1.34,8,3"/>
    <path class="st4" d="M42.45,117c1.66,0,3,3.58,3,8s-1.34,8-3,8"/>
    <line class="st0" x1="289.45" y1="151" x2="292.45" y2="162"/>
    <line class="st0" x1="507.45" y1="195" x2="506.45" y2="187"/>
    <line class="st0" x1="326.45" y1="219" x2="334.45" y2="224"/>
    <line class="st0" x1="126.45" y1="123" x2="134.45" y2="123"/>
    <line class="st0" x1="61.45" y1="124" x2="50.45" y2="125"/>
    <line class="st0" x1="292.45" y1="162" x2="295.45" y2="173"/>
    <line class="st0" x1="280.45" y1="84" x2="281.45" y2="73"/>
    <line class="st0" x1="72.45" y1="124" x2="61.45" y2="124"/>
    <line class="st0" x1="318.45" y1="213" x2="326.45" y2="219"/>
    <line class="st0" x1="508.45" y1="204" x2="507.45" y2="195"/>
    <line class="st0" x1="295.45" y1="173" x2="298.45" y2="185"/>
    <line class="st0" x1="83.45" y1="123" x2="72.45" y2="124"/>
    <circle class="st5" cx="479.45" cy="300" r="8"/>
    <circle class="st2" cx="479.45" cy="300" r="8"/>
    <path class="st4" d="M471.45,300c0-1.66,3.58-3,8-3s8,1.34,8,3"/>
    <path class="st4" d="M479.45,292c1.66,0,3,3.58,3,8s-1.34,8-3,8"/>
    <line class="st0" x1="94.45" y1="123" x2="83.45" y2="123"/>
    <line class="st0" x1="281.45" y1="73" x2="282.45" y2="63"/>
    <line class="st0" x1="508.45" y1="213" x2="508.45" y2="204"/>
    <line class="st0" x1="487.45" y1="283" x2="482.45" y2="293"/>
    <circle class="st9" cx="212.45" cy="257" r="20"/>
    <circle class="st2" cx="212.45" cy="257" r="20"/>
    <path class="st4" d="M192.45,257c0-4.42,8.95-8,20-8s20,3.58,20,8"/>
    <path class="st4" d="M212.45,237c4.42,0,8,8.95,8,20s-3.58,20-8,20"/>
    <line class="st0" x1="241.45" y1="240" x2="230.45" y2="247"/>
    <line class="st0" x1="252.45" y1="233" x2="241.45" y2="240"/>
    <line class="st0" x1="263.45" y1="227" x2="252.45" y2="233"/>
    <line class="st0" x1="274.45" y1="220" x2="263.45" y2="227"/>
    <line class="st0" x1="285.45" y1="214" x2="274.45" y2="220"/>
    <circle class="st9" cx="303.45" cy="203" r="20"/>
    <circle class="st2" cx="303.45" cy="203" r="20"/>
    <path class="st4" d="M283.45,203c0-4.42,8.95-8,20-8s20,3.58,20,8"/>
    <path class="st4" d="M303.45,183c4.42,0,8,8.95,8,20s-3.58,20-8,20"/>
    <line class="st0" x1="492.45" y1="274" x2="487.45" y2="283"/>
    <line class="st0" x1="215.45" y1="278" x2="216.45" y2="289"/>
    <line class="st0" x1="509.45" y1="222" x2="508.45" y2="213"/>
    <circle class="st9" cx="113.45" cy="122" r="20"/>
    <circle class="st2" cx="113.45" cy="122" r="20"/>
    <path class="st4" d="M93.45,122c0-4.42,8.95-8,20-8s20,3.58,20,8"/>
    <path class="st4" d="M113.45,102c4.42,0,8,8.95,8,20s-3.58,20-8,20"/>
    <line class="st0" x1="216.45" y1="289" x2="218.45" y2="300"/>
    <line class="st0" x1="282.45" y1="63" x2="282.45" y2="52"/>
    <line class="st0" x1="497.45" y1="264" x2="492.45" y2="274"/>
    <line class="st0" x1="218.45" y1="300" x2="219.45" y2="312"/>
    <line class="st0" x1="219.45" y1="312" x2="221.45" y2="323"/>
    <line class="st0" x1="502.45" y1="255" x2="497.45" y2="264"/>
    <circle class="st5" cx="222.45" cy="331" r="8"/>
    <circle class="st2" cx="222.45" cy="331" r="8"/>
    <path class="st4" d="M214.45,331c0-1.66,3.58-3,8-3s8,1.34,8,3"/>
    <path class="st4" d="M222.45,323c1.66,0,3,3.58,3,8s-1.34,8-3,8"/>
    <line class="st0" x1="198.45" y1="248" x2="189.45" y2="242"/>
    <line class="st0" x1="121.45" y1="150" x2="118.45" y2="139"/>
    <line class="st0" x1="115.45" y1="104" x2="117.45" y2="95"/>
    <circle class="st9" cx="511.45" cy="238" r="20"/>
    <circle class="st2" cx="511.45" cy="238" r="20"/>
    <path class="st4" d="M491.45,238c0-4.42,8.95-8,20-8s20,3.58,20,8"/>
    <path class="st4" d="M511.45,218c4.42,0,8,8.95,8,20s-3.58,20-8,20"/>
    <line class="st0" x1="189.45" y1="242" x2="180.45" y2="237"/>
    <circle class="st7" cx="283.45" cy="39" r="18"/>
    <circle class="st2" cx="283.45" cy="39" r="18"/>
    <path class="st4" d="M265.45,39c0-3.87,8.06-7,18-7s18,3.13,18,7"/>
    <path class="st4" d="M283.45,21c3.87,0,7,8.06,7,18s-3.13,18-7,18"/>
    <line class="st0" x1="531.45" y1="242" x2="542.45" y2="244"/>
    <line class="st0" x1="124.45" y1="161" x2="121.45" y2="150"/>
    <line class="st0" x1="117.45" y1="95" x2="118.45" y2="85"/>
    <line class="st0" x1="542.45" y1="244" x2="554.45" y2="246"/>
    <line class="st0" x1="317.45" y1="194" x2="311.45" y2="198"/>
    <line class="st0" x1="554.45" y1="246" x2="565.45" y2="249"/>
    <line class="st0" x1="565.45" y1="249" x2="576.45" y2="251"/>
    <line class="st0" x1="180.45" y1="237" x2="171.45" y2="231"/>
    <circle class="st5" cx="584.45" cy="253" r="8"/>
    <circle class="st2" cx="584.45" cy="253" r="8"/>
    <path class="st4" d="M576.45,253c0-1.66,3.58-3,8-3s8,1.34,8,3"/>
    <path class="st4" d="M584.45,245c1.66,0,3,3.58,3,8s-1.34,8-3,8"/>
    <line class="st0" x1="118.45" y1="85" x2="119.45" y2="76"/>
    <line class="st0" x1="127.45" y1="172" x2="124.45" y2="161"/>
    <line class="st0" x1="171.45" y1="231" x2="162.45" y2="225"/>
    <line class="st0" x1="119.45" y1="76" x2="120.45" y2="66"/>
    <line class="st0" x1="130.45" y1="182" x2="127.45" y2="172"/>
    <line class="st0" x1="297.45" y1="42" x2="307.45" y2="44"/>
    <line class="st0" x1="322.45" y1="190" x2="317.45" y2="194"/>
    <line class="st0" x1="162.45" y1="225" x2="153.45" y2="220"/>
    <line class="st0" x1="133.45" y1="193" x2="130.45" y2="182"/>
    <circle class="st5" cx="121.45" cy="59" r="8"/>
    <circle class="st2" cx="121.45" cy="59" r="8"/>
    <path class="st4" d="M113.45,59c0-1.66,3.58-3,8-3s8,1.34,8,3"/>
    <path class="st4" d="M121.45,51c1.66,0,3,3.58,3,8s-1.34,8-3,8"/>
    <line class="st0" x1="503.45" y1="233" x2="499.45" y2="230"/>
    <line class="st0" x1="307.45" y1="44" x2="318.45" y2="46"/>
    <line class="st0" x1="328.45" y1="186" x2="322.45" y2="190"/>
    <line class="st0" x1="499.45" y1="230" x2="494.45" y2="227"/>
    <circle class="st5" cx="419.45" cy="41" r="8"/>
    <circle class="st2" cx="419.45" cy="41" r="8"/>
    <path class="st4" d="M411.45,41c0-1.66,3.58-3,8-3s8,1.34,8,3"/>
    <path class="st4" d="M419.45,33c1.66,0,3,3.58,3,8s-1.34,8-3,8"/>
    <line class="st0" x1="318.45" y1="46" x2="329.45" y2="48"/>
    <circle class="st9" cx="138.45" cy="211" r="20"/>
    <circle class="st2" cx="138.45" cy="211" r="20"/>
    <path class="st4" d="M118.45,211c0-4.42,8.95-8,20-8s20,3.58,20,8"/>
    <path class="st4" d="M138.45,191c4.42,0,8,8.95,8,20s-3.58,20-8,20"/>
    <line class="st0" x1="122.45" y1="223" x2="113.45" y2="230"/>
    <line class="st0" x1="113.45" y1="230" x2="103.45" y2="237"/>
    <line class="st0" x1="103.45" y1="237" x2="94.45" y2="244"/>
    <line class="st0" x1="411.45" y1="42" x2="398.45" y2="45"/>
    <line class="st3" x1="426.45" y1="42" x2="438.45" y2="44"/>
    <line class="st1" x1="426.45" y1="42" x2="438.45" y2="44"/>
    <line class="st0" x1="94.45" y1="244" x2="85.45" y2="251"/>
    <circle class="st5" cx="79.45" cy="257" r="8"/>
    <circle class="st2" cx="79.45" cy="257" r="8"/>
    <path class="st4" d="M71.45,257c0-1.66,3.58-3,8-3s8,1.34,8,3"/>
    <path class="st4" d="M79.45,249c1.66,0,3,3.58,3,8s-1.34,8-3,8"/>
    <line class="st0" x1="334.45" y1="182" x2="328.45" y2="186"/>
    <line class="st0" x1="329.45" y1="48" x2="339.45" y2="50"/>
    <line class="st0" x1="494.45" y1="227" x2="490.45" y2="224"/>
    <line class="st0" x1="398.45" y1="45" x2="385.45" y2="47"/>
    <line class="st3" x1="449.45" y1="46" x2="461.45" y2="48"/>
    <line class="st1" x1="449.45" y1="46" x2="461.45" y2="48"/>
    <line class="st0" x1="385.45" y1="47" x2="372.45" y2="50"/>
    <line class="st0" x1="490.45" y1="224" x2="485.45" y2="221"/>
    <line class="st0" x1="339.45" y1="178" x2="334.45" y2="182"/>
    <line class="st0" x1="145.45" y1="207" x2="148.45" y2="204"/>
    <line class="st3" x1="472.45" y1="50" x2="484.45" y2="52"/>
    <line class="st1" x1="472.45" y1="50" x2="484.45" y2="52"/>
    <circle class="st6" cx="354.45" cy="53" r="19"/>
    <circle class="st2" cx="354.45" cy="53" r="19"/>
    <path class="st4" d="M335.45,53c0-3.87,8.51-7,19-7s19,3.13,19,7"/>
    <path class="st4" d="M354.45,34c3.87,0,7,8.51,7,19s-3.13,19-7,19"/>
    <line class="st0" x1="353.45" y1="86" x2="353.45" y2="72"/>
    <line class="st0" x1="485.45" y1="221" x2="480.45" y2="218"/>
    <line class="st0" x1="352.45" y1="100" x2="353.45" y2="86"/>
    <line class="st0" x1="148.45" y1="204" x2="152.45" y2="202"/>
    <line class="st3" x1="495.45" y1="54" x2="507.45" y2="56"/>
    <line class="st1" x1="495.45" y1="54" x2="507.45" y2="56"/>
    <line class="st0" x1="352.45" y1="114" x2="352.45" y2="100"/>
    <line class="st0" x1="351.45" y1="128" x2="352.45" y2="114"/>
    <line class="st0" x1="351.45" y1="142" x2="351.45" y2="128"/>
    <line class="st0" x1="152.45" y1="202" x2="156.45" y2="200"/>
    <circle class="st7" cx="535.45" cy="61" r="18"/>
    <circle class="st2" cx="535.45" cy="61" r="18"/>
    <path class="st4" d="M517.45,61c0-3.87,8.06-7,18-7s18,3.13,18,7"/>
    <path class="st4" d="M535.45,43c3.87,0,7,8.06,7,18s-3.13,18-7,18"/>
    <circle class="st8" cx="350.45" cy="170" r="28"/>
    <circle class="st2" cx="350.45" cy="170" r="28"/>
    <path class="st4" d="M322.45,170c0-6.08,12.54-11,28-11s28,4.92,28,11"/>
    <path class="st4" d="M350.45,142c6.08,0,11,12.54,11,28s-4.92,28-11,28"/>
    <line class="st0" x1="377.45" y1="180" x2="390.45" y2="184"/>
    <line class="st0" x1="390.45" y1="184" x2="403.45" y2="188"/>
    <line class="st0" x1="403.45" y1="188" x2="415.45" y2="193"/>
    <line class="st0" x1="415.45" y1="193" x2="428.45" y2="197"/>
    <line class="st0" x1="428.45" y1="197" x2="441.45" y2="202"/>
    <line class="st0" x1="441.45" y1="202" x2="453.45" y2="206"/>
    <circle class="st9" cx="473.45" cy="213" r="20"/>
    <circle class="st2" cx="473.45" cy="213" r="20"/>
    <path class="st4" d="M453.45,213c0-4.42,8.95-8,20-8s20,3.58,20,8"/>
    <path class="st4" d="M473.45,193c4.42,0,8,8.95,8,20s-3.58,20-8,20"/>
    <line class="st0" x1="156.45" y1="200" x2="159.45" y2="198"/>
    <line class="st0" x1="535.45" y1="86" x2="535.45" y2="76"/>
    <line class="st0" x1="485.45" y1="198" x2="493.45" y2="188"/>
    <line class="st0" x1="535.45" y1="96" x2="535.45" y2="86"/>
    <circle class="st5" cx="162.45" cy="196" r="8"/>
    <circle class="st2" cx="162.45" cy="196" r="8"/>
    <path class="st4" d="M154.45,196c0-1.66,3.58-3,8-3s8,1.34,8,3"/>
    <path class="st4" d="M162.45,188c1.66,0,3,3.58,3,8s-1.34,8-3,8"/>
    <line class="st0" x1="493.45" y1="188" x2="500.45" y2="178"/>
    <line class="st0" x1="472.45" y1="230" x2="471.45" y2="240"/>
    <line class="st0" x1="535.45" y1="106" x2="535.45" y2="96"/>
    <line class="st0" x1="500.45" y1="178" x2="508.45" y2="168"/>
    <line class="st0" x1="471.45" y1="240" x2="470.45" y2="250"/>
    <line class="st0" x1="508.45" y1="168" x2="516.45" y2="158"/>
    <line class="st0" x1="535.45" y1="115" x2="535.45" y2="106"/>
    <line class="st0" x1="516.45" y1="158" x2="523.45" y2="148"/>
    <line class="st0" x1="470.45" y1="250" x2="470.45" y2="260"/>
    <circle class="st5" cx="422.45" cy="350" r="8"/>
    <circle class="st2" cx="422.45" cy="350" r="8"/>
    <path class="st4" d="M414.45,350c0-1.66,3.58-3,8-3s8,1.34,8,3"/>
    <path class="st4" d="M422.45,342c1.66,0,3,3.58,3,8s-1.34,8-3,8"/>
    <line class="st0" x1="470.45" y1="260" x2="469.45" y2="270"/>
    <line class="st0" x1="434.45" y1="336" x2="427.45" y2="344"/>
    <circle class="st9" cx="535.45" cy="133" r="20"/>
    <circle class="st2" cx="535.45" cy="133" r="20"/>
    <path class="st4" d="M515.45,133c0-4.42,8.95-8,20-8s20,3.58,20,8"/>
    <path class="st4" d="M535.45,113c4.42,0,8,8.95,8,20s-3.58,20-8,20"/>
    <line class="st0" x1="441.45" y1="328" x2="434.45" y2="336"/>
    <line class="st0" x1="469.45" y1="270" x2="468.45" y2="280"/>
    <line class="st0" x1="448.45" y1="320" x2="441.45" y2="328"/>
    <line class="st0" x1="454.45" y1="311" x2="448.45" y2="320"/>
    <line class="st0" x1="546.45" y1="138" x2="553.45" y2="140"/>
    <circle class="st9" cx="467.45" cy="296" r="20"/>
    <circle class="st2" cx="467.45" cy="296" r="20"/>
    <path class="st4" d="M447.45,296c0-4.42,8.95-8,20-8s20,3.58,20,8"/>
    <path class="st4" d="M467.45,276c4.42,0,8,8.95,8,20s-3.58,20-8,20"/>
    <line class="st0" x1="486.45" y1="305" x2="497.45" y2="309"/>
    <line class="st0" x1="497.45" y1="309" x2="507.45" y2="313"/>
    <line class="st0" x1="507.45" y1="313" x2="518.45" y2="318"/>
    <line class="st0" x1="518.45" y1="318" x2="528.45" y2="322"/>
    <line class="st0" x1="553.45" y1="140" x2="559.45" y2="143"/>
    <circle class="st5" cx="536.45" cy="326" r="8"/>
    <circle class="st2" cx="536.45" cy="326" r="8"/>
    <path class="st4" d="M528.45,326c0-1.66,3.58-3,8-3s8,1.34,8,3"/>
    <path class="st4" d="M536.45,318c1.66,0,3,3.58,3,8s-1.34,8-3,8"/>
    <line class="st0" x1="559.45" y1="143" x2="565.45" y2="146"/>
    <line class="st0" x1="460.45" y1="291" x2="456.45" y2="288"/>
    <line class="st0" x1="565.45" y1="146" x2="571.45" y2="148"/>
    <line class="st0" x1="456.45" y1="288" x2="452.45" y2="286"/>
    <line class="st0" x1="452.45" y1="286" x2="448.45" y2="283"/>
    <circle class="st7" cx="581.45" cy="152" r="18"/>
    <circle class="st2" cx="581.45" cy="152" r="18"/>
    <path class="st4" d="M563.45,152c0-3.87,8.06-7,18-7s18,3.13,18,7"/>
    <path class="st4" d="M581.45,134c3.87,0,7,8.06,7,18s-3.13,18-7,18"/>
    <line class="st0" x1="448.45" y1="283" x2="444.45" y2="280"/>
    <circle class="st5" cx="442.45" cy="278" r="8"/>
    <circle class="st2" cx="442.45" cy="278" r="8"/>
    <path class="st4" d="M434.45,278c0-1.66,3.58-3,8-3s8,1.34,8,3"/>
    <path class="st4" d="M442.45,270c1.66,0,3,3.58,3,8s-1.34,8-3,8"/>
  </g>
</svg>